<svg width="44" height="44" viewBox="0 0 44 44" fill="none" xmlns="http://www.w3.org/2000/svg">
<path d="M44 22C44 28.0751 41.5376 33.5751 37.5564 37.5564C33.5751 41.5376 28.0751 44 22 44C15.9249 44 10.4249 41.5376 6.44365 37.5564C2.46243 33.5751 0 28.0751 0 22C0 15.9249 2.46243 10.4249 6.44365 6.44365C10.4249 2.46243 15.9249 0 22 0C28.0751 0 33.5751 2.46243 37.5564 6.44365C41.5376 10.4249 44 15.9249 44 22Z" fill="#1CC81C"/>
<path d="M31.9667 9.2666C32.7222 9.2666 33.3778 9.53327 33.9333 10.0666C34.4889 10.5999 34.7556 11.2444 34.7333 11.9999V31.2333C34.7333 32.011 34.4667 32.6666 33.9333 33.1999C33.4 33.7333 32.7444 33.9999 31.9667 33.9999H26.4667V24.3666H29.2333L30 20.9666H26.4667V18.6666C26.4667 18.1777 26.6111 17.7222 26.9 17.2999C27.1889 16.8777 27.6778 16.6666 28.3667 16.6666H30V13.0999H27.5333C25.7778 13.0999 24.4778 13.5666 23.6333 14.4999C22.7889 15.4333 22.3667 16.6555 22.3667 18.1666V20.9666H19.6V24.3666H22.3667V33.9999H12.7333C11.9778 33.9999 11.3333 33.7333 10.8 33.1999C10.2667 32.6666 10 32.011 10 31.2333V11.9999C10 11.2444 10.2667 10.5999 10.8 10.0666C11.3333 9.53327 11.9778 9.2666 12.7333 9.2666H31.9667Z" fill="white"/>
</svg>
