<svg width="44" height="44" viewBox="0 0 44 44" fill="none" xmlns="http://www.w3.org/2000/svg">
<path d="M44 22C44 28.0751 41.5376 33.5751 37.5564 37.5564C33.5751 41.5376 28.0751 44 22 44C15.9249 44 10.4249 41.5376 6.44365 37.5564C2.46243 33.5751 0 28.0751 0 22C0 15.9249 2.46243 10.4249 6.44365 6.44365C10.4249 2.46243 15.9249 0 22 0C28.0751 0 33.5751 2.46243 37.5564 6.44365C41.5376 10.4249 44 15.9249 44 22Z" fill="#1CC81C"/>
<path d="M15.5 10.9999C15.5 11.7777 15.2667 12.4333 14.8 12.9666C14.3333 13.4999 13.6444 13.7666 12.7333 13.7666C11.9111 13.7666 11.2556 13.4999 10.7667 12.9666C10.2778 12.4333 10.0222 11.8333 10 11.1666C10 10.3888 10.2556 9.71105 10.7667 9.13327C11.2778 8.55549 11.9444 8.2666 12.7667 8.2666C13.5889 8.2666 14.2556 8.53327 14.7667 9.0666C15.2778 9.59993 15.5222 10.2444 15.5 10.9999ZM10 32.9999H15.5V15.1333H10V32.9999ZM28.6667 15.3999C27.9556 15.3999 27.3222 15.4888 26.7667 15.6666C26.2111 15.8444 25.7111 16.0777 25.2667 16.3666C24.8222 16.6555 24.4556 16.9555 24.1667 17.2666C23.8778 17.5777 23.6444 17.8777 23.4667 18.1666H23.3333L23.0333 15.8333H18.1C18.1 16.5888 18.1222 17.411 18.1667 18.2999C18.2111 19.1888 18.2333 20.1444 18.2333 21.1666V32.9999H23.7333V23.2333C23.7333 22.9666 23.7444 22.7222 23.7667 22.4999C23.7889 22.2777 23.8222 22.0666 23.8667 21.8666C23.9556 21.6222 24.0778 21.3666 24.2333 21.0999C24.3889 20.8333 24.5667 20.5999 24.7667 20.3999C24.9667 20.1999 25.2111 20.0222 25.5 19.8666C25.7889 19.711 26.1111 19.6444 26.4667 19.6666C27.4444 19.6666 28.1556 20.0222 28.6 20.7333C29.0444 21.4444 29.2556 22.3666 29.2333 23.4999V32.9999H34.7333V22.8333C34.7333 21.5666 34.5778 20.4666 34.2667 19.5333C33.9556 18.5999 33.5333 17.8222 33 17.1999C32.4667 16.5777 31.8222 16.1222 31.0667 15.8333C30.3111 15.5444 29.5111 15.3999 28.6667 15.3999Z" fill="white"/>
</svg>
